{"title":"Epic 2013 720p Bluray DTS x264 SilverTorrentHD","uid":8794364,"size":2964110277,"categoryP":"video","categoryS":"hd___movies","magnet":"?xt=urn:btih:ea795cc7b324d86b060c3e0ae9b96d28e8212f63&amp;dn=Epic+2013+720p+Bluray+DTS+x264+SilverTorrentHD&amp;tr=udp%3A%2F%2Ftracker.openbittorrent.com%3A80&amp;tr=udp%3A%2F%2Fopen.demonii.com%3A1337&amp;tr=udp%3A%2F%2Ftracker.coppersurfer.tk%3A6969&amp;tr=udp%3A%2F%2Fexodus.desync.com%3A6969","seeders":1,"leechers":0,"uploader":"AliBaloch","files":-1,"time":1376034028,"description":" &lt;a href=&quot;http://i874.photobucket.com/albums/ab306/worldwide7477/Custom%20Covers/Epic-2013-Custom-Movie-Cover-Worldwide7477_zpsfe5d0fd6.png&quot; rel=&quot;nofollow&quot; target=&quot;_NEW&quot;&gt;http://i874.photobucket.com/albums/ab306/worldwide7477/Custom%20Covers/Epic-2013-Custom-Movie-Cover-Worldwide7477_zpsfe5d0fd6.png&lt;/a&gt;\n\nBluray DTS x264 SilverTorrentHDEpic 2013 720p Bluray DTS x264 SilverTorrentHD.mkv\nFormat                                   : Matroska\nFormat version                           : Version 4 / Version 2\nFile size                                : 2.69 GiB\nDuration                                 : 1h 42mn\nOverall bit rate                         : 3 756 Kbps\nMovie name                               : Epic (2013) 720p Worldwide7477\n\nVideo\nFormat/Info                              : Advanced Video Codec\nFormat profile                           : &lt;a class=&quot;__cf_email__&quot; href=&quot;/cdn-cgi/l/email-protection&quot; data-cfemail=&quot;175f7e707f575b233926&quot;&gt;[email&amp;#160;protected]&lt;/a&gt;&lt;script cf-hash='f9e31' type=&quot;text/javascript&quot;&gt;\n/* &lt;![CDATA[ */!function(){try{var t=&quot;currentScript&quot;in document?document.currentScript:function(){for(var t=document.getElementsByTagName(&quot;script&quot;),e=t.length;e--;)if(t[e].getAttribute(&quot;cf-hash&quot;))return t[e]}();if(t&amp;&amp;t.previousSibling){var e,r,n,i,c=t.previousSibling,a=c.getAttribute(&quot;data-cfemail&quot;);if(a){for(e=&quot;&quot;,r=parseInt(a.substr(0,2),16),n=2;a.length-n;n+=2)i=parseInt(a.substr(n,2),16)^r,e+=String.fromCharCode(i);e=document.createTextNode(e),c.parentNode.replaceChild(e,c)}}}catch(u){}}();/* ]]&gt; */&lt;/script&gt;\nFormat settings, CABAC                   : Yes\nFormat settings, ReFrames                : 4 frames\nCodec ID                                 : V_MPEG4/ISO/AVC\nDuration                                 : 1h 42mn\nBit rate                                 : 2 999 Kbps\nWidth                                    : 1 280 pixels\nHeight                                   : 528 pixels\nDisplay aspect ratio                     : 2.40:1\nFrame rate mode                          : Constant\nFrame rate                               : 23.976 fps\nChroma subsampling                       : 4:2:0\nBit depth                                : 8 bits\nStream size                              : 2.09 GiB (78%)\nTitle                                    : Epic 2013 720p Bluray DTS x264 SilverTorrentHD\nDefault                                  : Yes\nForced                                   : No\n\nAudio\nFormat                                   : DTS\nFormat/Info                              : Digital Theater Systems\nMode                                     : 16\nFormat settings, Endianness              : Big\nCodec ID                                 : A_DTS\nDuration                                 : 1h 42mn\nBit rate mode                            : Constant\nBit rate                                 : 755 Kbps\nChannel(s)                               : 6 channels\nChannel positions                        : Front: L C R, Side: L R, LFE\nSampling rate                            : 48.0 KHz\nBit depth                                : 24 bits\nStream size                              : 553 MiB (20%)\nTitle                                    : Worldwide7477 (DTS)\nLanguage                                 : English\nDefault                                  : Yes\nForced                                   : No\n\nText\nID                                       : 3\nFormat                                   : UTF-8\nCodec ID                                 : S_TEXT/UTF8\nCodec ID/Info                            : UTF-8 Plain Text\nTitle                                    : Worldwide7477\nLanguage                                 : English\nDefault                                  : Yes\nForced                                   : No\n &lt;a href=&quot;\nhttp://img96.imageshack.us/img96/5121/0ssp.png&quot; rel=&quot;nofollow&quot; target=&quot;_NEW&quot;&gt;\nhttp://img96.imageshack.us/img96/5121/0ssp.png&lt;/a&gt;\n &lt;a href=&quot;\nhttp://img17.imageshack.us/img17/7918/hp9y.png&quot; rel=&quot;nofollow&quot; target=&quot;_NEW&quot;&gt;\nhttp://img17.imageshack.us/img17/7918/hp9y.png&lt;/a&gt;\n &lt;a href=&quot;\nhttp://img694.imageshack.us/img694/6198/p9ap.png&quot; rel=&quot;nofollow&quot; target=&quot;_NEW&quot;&gt;\nhttp://img694.imageshack.us/img694/6198/p9ap.png&lt;/a&gt;\n &lt;a href=&quot;\nhttp://img202.imageshack.us/img202/8381/25w.png&quot; rel=&quot;nofollow&quot; target=&quot;_NEW&quot;&gt;\nhttp://img202.imageshack.us/img202/8381/25w.png&lt;/a&gt;\n &lt;a href=&quot;\nhttp://img196.imageshack.us/img196/9899/ihwp.png&quot; rel=&quot;nofollow&quot; target=&quot;_NEW&quot;&gt;\nhttp://img196.imageshack.us/img196/9899/ihwp.png&lt;/a&gt;","torrent":{"xt":"urn:btih:ea795cc7b324d86b060c3e0ae9b96d28e8212f63","amp;dn":"Epic+2013+720p+Bluray+DTS+x264+SilverTorrentHD","amp;tr":["udp%3A%2F%2Ftracker.openbittorrent.com%3A80","udp%3A%2F%2Fopen.demonii.com%3A1337","udp%3A%2F%2Ftracker.coppersurfer.tk%3A6969","udp%3A%2F%2Fexodus.desync.com%3A6969"],"infoHash":"ea795cc7b324d86b060c3e0ae9b96d28e8212f63","infoHashBuffer":{"type":"Buffer","data":[234,121,92,199,179,36,216,107,6,12,62,10,233,185,109,40,232,33,47,99]},"announce":[],"urlList":[]}}